<?xml version="1.0" standalone="no"?>
<!DOCTYPE svg PUBLIC "-//W3C//DTD SVG 20010904//EN"
 "http://www.w3.org/TR/2001/REC-SVG-20010904/DTD/svg10.dtd">
<svg version="1.0" xmlns="http://www.w3.org/2000/svg"
 width="512.000000pt" height="512.000000pt" viewBox="0 0 512.000000 512.000000"
 preserveAspectRatio="xMidYMid meet">
<metadata>
Created by potrace 1.11, written by Peter Selinger 2001-2013
</metadata>
<g transform="translate(0.000000,512.000000) scale(0.100000,-0.100000)"
fill="#000000" stroke="none">
<path d="M4060 4535 c-201 -41 -376 -76 -390 -78 -37 -7 -169 -33 -395 -79
-110 -22 -211 -42 -225 -45 -14 -2 -104 -20 -200 -39 -96 -19 -186 -36 -200
-39 -14 -3 -34 -7 -45 -9 -25 -5 -531 -106 -565 -112 -14 -3 -180 -36 -370
-74 -190 -37 -359 -70 -377 -73 -17 -3 -36 -7 -40 -10 -5 -3 -27 -8 -48 -10
-125 -16 -444 -89 -492 -114 -99 -50 -182 -160 -201 -267 -5 -23 -7 -617 -6
-1321 l1 -1280 22 -68 c61 -187 181 -313 370 -386 l66 -26 1574 -3 c1744 -3
1626 -7 1767 63 153 77 259 214 311 400 6 22 11 2453 5 2472 -3 9 -253 12
-1050 12 -576 0 -1058 1 -1072 1 -20 1 269 63 400 86 19 3 37 7 40 9 3 2 26 6
50 10 25 3 61 10 80 15 19 5 49 12 65 15 54 9 87 16 335 65 135 26 272 53 305
60 79 15 74 14 335 66 124 25 234 47 245 49 215 41 245 49 240 64 -2 9 -7 32
-10 51 -11 63 -125 635 -131 653 -3 9 -11 17 -17 16 -7 0 -176 -34 -377 -74z
m297 -502 c-3 -2 -48 -12 -137 -28 -14 -3 -101 -20 -195 -38 l-169 -34 -205
136 c-112 75 -198 137 -190 139 8 2 122 24 254 51 l240 47 202 -135 c112 -74
201 -136 200 -138z m-1206 -65 c108 -73 197 -134 196 -135 -2 -1 -16 -4 -32
-7 -25 -4 -163 -33 -250 -52 -21 -4 -104 -19 -164 -29 -19 -3 -38 -8 -43 -11
-5 -3 -102 56 -216 132 -148 99 -201 140 -187 143 11 2 115 23 230 46 116 24
223 44 239 44 21 1 82 -35 227 -131z m-1017 -199 c108 -73 195 -134 192 -136
-2 -2 -115 -26 -251 -54 l-247 -49 -186 126 c-103 69 -193 132 -200 138 -10
10 20 19 155 45 92 18 177 35 188 37 11 2 36 7 55 10 19 3 37 8 39 10 21 20
76 -8 255 -127z m208 -543 c-9 -10 -86 -88 -171 -173 -99 -99 -161 -153 -175
-154 -126 -3 -496 -3 -496 0 0 2 78 81 173 175 l172 172 257 -1 c251 0 256 0
240 -19z m1048 16 c0 -2 -76 -80 -169 -173 -137 -137 -175 -169 -198 -170 -15
0 -132 -1 -260 -2 l-232 -2 22 24 c12 13 90 91 173 175 l152 151 256 0 c141 0
256 -2 256 -3z m1030 -2 c0 -3 -76 -81 -169 -174 l-168 -168 -249 0 c-137 0
-253 1 -259 1 -13 1 314 330 337 340 20 7 508 9 508 1z m-200 -751 c3 -4 5
-328 5 -721 -1 -704 -1 -714 -22 -760 -14 -31 -35 -56 -64 -75 l-43 -28 -1531
0 -1531 0 -42 28 c-23 15 -51 46 -64 70 l-22 42 -1 710 c-1 391 1 717 3 725 3
13 195 15 1655 15 909 1 1654 -2 1657 -6z"/>
<path d="M2331 1725 c0 -427 2 -544 12 -539 92 55 864 528 870 534 5 4 -38 36
-95 70 -57 35 -128 79 -158 98 -210 130 -584 358 -608 371 -20 11 -20 10 -21
-534z"/>
</g>
</svg>
